<svg xmlns="http://www.w3.org/2000/svg" fill="none" viewBox="0 0 485 91"><defs><radialGradient id="a" gradientTransform="matrix(2 0 0 2 -.9 0)"><stop offset="0%" stop-color="#fdd575"/><stop offset="14.3%" stop-color="#fcc06a"/><stop offset="28.6%" stop-color="#fbaa63"/><stop offset="42.9%" stop-color="#f99262"/><stop offset="57.1%" stop-color="#f77868"/><stop offset="71.4%" stop-color="#f55973"/><stop offset="100%" stop-color="#d22e8c"/></radialGradient></defs><path fill="url(#a)" fill-rule="evenodd" d="m297.8.6-29.4 2.2a884.2 884.2 0 0 0-40.8 4c-24.2 2.6-70.9 8.8-84.2 11.2a175.9 175.9 0 0 1-39.3 4H90l-8.3-2.2A647 647 0 0 1 33.2 5.7c-6-1.9-12.6-3.7-14.7-4-3.9-.6-7.5-.3-7.5.6A63.1 63.1 0 0 1 24 13c8.1 8 13.3 12.2 21.6 18 4 2.7 7.2 5 7.2 5.2 0 .3-10 4.8-19.6 8.8-7.7 3.1-16.7 8-26.9 14.5-8.7 5.6-8.8 5.4 2.2 5.5A96 96 0 0 0 31 62.3a770.7 770.7 0 0 1 61-7.8c3.4 0 5 .4 12.8 3l19.7 7a301 301 0 0 0 16.5 5.8c11 3.1 51 13.3 54.2 13.7a440 440 0 0 0 59 5.4c33.3.8 86.5 1.1 93.4.5a562.9 562.9 0 0 0 77.2-18l19-8.9c20.7-9.6 31.8-16.5 38.3-23.8 3.3-3.7 3.7-6 1.5-8.3-.5-.6-1-1.8-1.3-2.8-.6-3.2-2.6-4.5-13-8.3a163.2 163.2 0 0 0-24.6-7.4c-2.3-.4-8.3-1.8-13.2-3C403.5 2.7 380 .6 328.7.1c-16-.2-24 0-30.9.5ZM340.6 9c1.7 2.1 3.7 4.1 4.3 4.4.6.3 2 2 3.2 3.7 1.1 1.7 3.4 4.5 5 6 2.5 2.6 2.7 3 1.8 3.2-2.4.6-6.3.9-7.5.6-1.4-.4-1.8-1.3-.5-1.3.5 0 .6-.2.4-.6-.2-.4-.5-1.8-.6-3.1-.3-4.3-1.3-5.8-11-16.5-1.8-2-1.8-2.5 0-1.4a30 30 0 0 1 4.9 5Zm13.9-4a145.8 145.8 0 0 1 12.7 11.6c1.8 1.8 3.7 5 3 5-.1 0 .1.7.5 1.5s.8 1.7.8 2c0 .6-1.9.6-3.8 0l-2.7-.7c-.8-.2-1.5-.7-1.6-1.4-.4-1.2.4-2.6 1.2-2.1.6.4 1-1 .6-2-.2-.4-1.1-1.4-2-2.4-.7-.9-2.5-3.1-3.7-5a29.7 29.7 0 0 0-4.9-5.4 19.4 19.4 0 0 1-2.5-2.2c0-.6 1-.1 2.4 1Zm-43.8 1.5 4.6 4.4a40.7 40.7 0 0 1 9.6 10.8c1.6.7 1.6 1 0 1.9-.6.3-1 .8-1 1 .2.3-.1.5-.7.5s-1 .2-.7.5c.1.3.7.4 1.2.2.5-.1 1.7-.3 2.6-.3 2 0 2.7-1.3 1.8-3-.3-.7-.3-.9.3-.9.4 0 .8-.3.8-.7 0-.5.4-.8 1-.8 1.7 0 2.3.6 2.2 2.2 0 2.2.9 2.4 1.3.3.3-1.5.2-1.9-.7-2.6-.8-.7-1-1-.4-1.3.4-.3-.2-1.5-2.8-4.6l-3.6-4.4c-1.7-1.5-4.6-5.1-4.3-5.4.4-.4 7.3 6.7 11 11.3l5.1 6c2 2.2 2.5 3.6 1 3.4-1.3-.1-1.9.1-1.9.8 0 .4-.4.8-.8.9-1.4.3-2.6-.2-2.6-1 0-1-2.8-.4-4.5 1-1.4 1-2 1.1-2 .1 0-.4-.3-.6-.8-.4-.8.3-.5 2.1.4 2.7.3.2.3 1.4.1 2.9-.2 2-.5 2.6-1.3 2.8-.6.2-1.2 0-1.4-.3-.2-.3-.6-.4-1-.2-.3.2-.7-.2-1-1-.7-1.8-1.8-1.6-2 .4 0 2.3-.2 2.8-1.7 6-4.5 9.5-6.3 13.4-7.5 16.6-.8 2-1.7 3.6-2 3.6-.6 0-1.6 1.6-4.8 7.5a16 16 0 0 1-2.6 3.6c-.5.5-1 1.4-1 2a4 4 0 0 1-1.5 2.1c-.7.6-1.3 1.5-1.3 2.1 0 .6-.3 1.3-.7 1.7-.4.3-1 1.4-1.4 2.5a6.8 6.8 0 0 1-2.2 3.2c-1.5 1.1-1.7 1.2-3.2.5-1.4-.6-1.5-.8-.8-1 .5-.2 2.9-3.8 5.4-8a82.5 82.5 0 0 1 7.9-11.9c.2-.7.8-1.3 1.2-1.3.4 0 .9-.5 1-1.1l1.7-3.1a34 34 0 0 0 4.5-8.6c0-.5.8-2.6 1.6-4.7 1.2-2.8 1.9-3.9 2.5-3.9.5 0 1-.3 1-.7 0-.4-.4-.8-.8-.8-1 0-2-1.8-1.3-2.2.3-.2 1.2-.2 2 0 1 .2 1.4 0 1.9-.8.4-.5.4-1 .1-1-.3 0-.5-.3-.5-.7 0-1-1.3-1-2.3.2-.9 1-.9 1-2.2-.5-1.3-1.6-1.3-1.6-.6-5.1.4-2 .6-4 .6-4.5-.2-2.3 0-3.6 1-4.1 1.4-1 2.2-.1 1.5 1.5-.5 1.5-.2 2.5.5 1.3.2-.3 1-.6 1.7-.6s1.5-.2 1.6-.5c.1-.2 0-.4-.4-.4s-.4-.2-.1-.4c.3-.2.8-1 1.1-1.8.6-1.3.5-1.5-1.8-4.4-2.3-3-5-5.6-10.1-10-1.9-1.5-2-1.8-1-1.8.5 0 2 1 3.5 2.3Zm61.5-.9c2.3 1.4 6.5 5.8 8.6 9l3.7 5.7a14 14 0 0 1 2 3.6c0 .9-1.6.9-2.8 0-.6-.4-1.7-.6-2.7-.4-1.3.1-2 0-2.5-.6s-.4-.8.9-1c1.1-.3 1.4-.6 1.4-1.7 0-1.6-1.2-4.2-1.8-3.9-.4.3-3-3.1-5-6.3-.6-1-2-2.6-3.2-3.6-1.6-1.3-1.8-1.7-1-1.7a6 6 0 0 1 2.4.9ZM24 6.7c.5.3 6.2 2 12.7 3.8 6.5 1.8 12.9 3.7 14.2 4.3a48 48 0 0 0 9.9 3c.5 0 1.8.4 2.8 1l5.7 2.4c2.1.8 6.2 2.5 9 3.9 4.8 2.2 5.8 3 10.2 7.2 4 4 5.2 4.9 6.8 5.1 1 .2 2 .5 2 .7l.3 2c.3 1.5.2 1.6-.7 1.3-.7-.2-1 0-1.3.7-.2.8-.5 1-1.7.7-1.2-.2-1.7 0-2.7 1.3-.8.8-1.5 1.5-1.8 1.5-.2 0-1.2.9-2.3 2a9 9 0 0 1-4 2.4l-3.5.9c-.8.2-2.2.3-3 .2-.9 0-3 .2-4.5.7-4.2 1-13.6 2.7-19.1 3.3a60 60 0 0 0-7.8 1.3c-4.6 1.2-13.5 2.6-18.1 3l-10.1.8c-4.5.5-5.9.5-5.9 0 0-.4 8.3-4.6 9.2-4.6l3.9-1.7c2-1 4.7-2 6.1-2.3 3.7-1 5.9-1.9 12-5.3 3-1.6 6.2-3.3 7.2-3.7 3-1.1 5.3-2.9 6.6-4.8 1.7-2.4 1.2-4.2-2.1-7.7l-3.6-2.5c-1.6-.9-5.7-3.7-9.2-6.1a259 259 0 0 0-8.3-5.7c-1-.6-1.8-1.3-1.8-1.6 0-.3-.4-.5-.8-.5-.3 0-.7-.1-.8-.3-.1-.2-1.1-1-2.3-1.8-3-2-5.6-4.4-5.3-4.9.3-.6 1-.6 2.1 0Zm270 4c3.5 3.1 4.5 4 7.6 7.5 1.4 1.5 2.3 2 2.3 1 0-.7 4 1.6 4.4 2.5.1.4.5 1 .8 1.2.3.2.3.4-.1.6-.4.2-.6.6-.6 1a3 3 0 0 1-.8 1.7c-.7.7-1 .8-2.5.3-1-.3-1.7-.7-1.5-1.1.1-.3 0-.8-.1-1-.2-.1-.4-.6-.4-1 0-.7-4.3-5.4-8-8.6-1.3-1.1-2-2-1.7-2 .4 0 1.5.7 2.4 1.6 1 .8 1.5 1.2 1.3.8a11 11 0 0 0-2.2-2.2 32 32 0 0 1-6-5.9c0-.6.9 0 5 3.6ZM263.5 9c.4.4 1 .8 1.5.8.7 0 9.3 8.1 9.3 8.8a18 18 0 0 0 3 3.4c1.6 1.6 3 3.2 3 3.6 0 .3-.2.5-.5.3-.3-.1-1.2 0-2 .5-.8.4-2.5.8-3.7.8-2 0-2.2-.1-2-1 .2-.6.9-1.3 1.5-1.6 1-.4 1.1-.9 1-2 0-.8-.6-1.7-1-2.1-.6-.4-1-1.1-1-1.6s-.5-1.1-1.1-1.4c-1.1-.6-9.6-8.5-9.6-9s.9-.2 1.6.5Zm16 3.4c2 1.7 5.2 4.7 7.2 6.7a16 16 0 0 0 5.5 4.1c1.7.5 3.7 2 2.7 2-.2 0 .1.5.8 1 1 .9 1.1 1.3.9 3.6-.3 2.6-.3 2.6.3.8A8 8 0 0 1 298 28c.8-.8 2.4-.1 2 .8-.3.9.3 1 1 .2.4-.3.7-.3.9 0 .2.3-.1.6-.7.8-1.2.4-1.3 1-.3 1.7.6.5.6.8 0 2-.8 1.5-.9 2.5-.2 2.5.3 0 .6-.5.8-1.3.3-1 .6-1.2 1.5-1 .6.1 1.2 0 1.2-.2 0-.3-.2-.4-.5-.4s-.5-.4-.5-.8c0-.5-.5-1-1-1.1-1-.2-.9-.4 1-2.2 1.7-1.5 2.4-1.8 3.8-1.7 1.1.1 1.7 0 1.7-.5 0-1.2 1.8-.8 2 .4a25 25 0 0 1 0 8.8c-.8 1.4-1.6 1.3-1.2-.2.3-1.5-.4-1.6-1.2-.3-.7 1.1-2.1.9-2.2-.4 0-.5-.1-.6-.3-.2-.1.4-.5.6-1 .6-.3 0-.6.4-.6.8 0 .5-.6.7-2 .7-1.6 0-2 .2-2 1 0 .5.7 1 2.3 1.5 1.6.5 2 .8 1.7 1.2-.3.3-.5 1.3-.5 2.3 0 2.4-1 3.2-2.7 2.5-1.2-.5-1.3-.3-3 3.1A183.8 183.8 0 0 1 277 81c-1.2 2-4.2 4.4-5 4-.4-.3-.3-.6.6-1.3.6-.4 1-.8.7-.8-.2 0 0-.5.5-1.1l3.1-4.1c1.2-1.7 3-3.9 4-5 1.1-1 3-3.5 4.2-5.4l4-6a11 11 0 0 0 1.8-3.2 135.4 135.4 0 0 0 5.3-10c3.1-6 3.3-6.6 2.5-7-.6-.4-.7-.7-.4-1.1.8-1 .1-6.7-.8-7-1-.5-1.2-.2-1.2 1.4 0 .7-.2 1.4-.4 1.5-.6.4-1.6-1.7-1.3-2.5.6-1.5-.6-.7-1.2.7-.3 1-1 1.5-1.5 1.5s-1 .3-1 .6c-.2.3-1.2.2-3-.4-2.7-.9-2.7-1-2.8-3.1-.2-2.7.8-3.9 2.5-3 .7.4 1 .4 1.4 0 .2-.4.7-.5 1.1-.4.5.2 1 0 1.3-.5.4-.7.6-.7 1.8-.2 1.1.5 1.5.5 1.8 0 .6-1 .5-1.3-.6-1-.5 0-1 0-1-.3 0-.2-.5-.7-1.2-1-1.2-.6-1.9-.2-2.3 1.3-.2.4-1 .8-2 .8-1.3 0-2-.3-3-1.3-1.5-1.5-2.4-3.9-1.5-3.9 1.4 0 .4-1.9-1.4-3-1.1-.5-2-1.3-1.9-1.6 0-.3-.2-.6-.6-.8-.4-.1-.5 0-.3.3.2.4 0 .5-.4.3-.6-.2-.7-.5-.3-1 .4-.4 1-.5 1.8-.2 2 .8 1.4-.2-2-3.3a35.8 35.8 0 0 1-4-4c-.8-1.1-.8-1.2.6-.8.7.2 3 1.7 4.8 3.3Zm-29-1.7c.8 0 6.3 5.3 12 11.4 3 3 3 3 2.1 4.3-.9 1.4-3 2.6-3.6 2-.2-.1 0-.5.3-.7.9-.5.3-1.5-1-1.5-.5 0-1-.4-1.2-.8-.4-.8-2-1-2.4-.3-.2.3 0 .6.3.7.5.2.5.5 0 1.5-.9 1.5-1 1.6-2 .9-.6-.4-.7-.6-.2-1.2a3 3 0 0 0 .5-1.9c-.2-1.1 0-1.2 2.5-1 3.2.2 3.3-.5.6-3.1-1.2-1.2-1.8-2.2-1.6-2.7.2-.5 0-.7-.5-.5-.5.2-2.1-1-4.8-3.7-4-4.1-5.1-5.7-2.9-4.2.7.5 1.6.8 2 .8Zm161 .3a68.9 68.9 0 0 1 9 2.7 27 27 0 0 0 9.5 2c2.5-.1 4.3.2 7.1 1.2 2 .8 5.3 1.7 7.2 2.1a1499.2 1499.2 0 0 1 18.9 4c3 .6 4.7 1.2 5.4 1.9.6.6.9.8.7.4-.6-1 .5-.8 4.2.7 4.5 1.7 5.4 3 4.1 5.8-.4.7-.5 1.6-.4 2 .7 1.7-.4 3.4-3.6 6a64.2 64.2 0 0 1-6.2 4.4c-2.7 1.6-5 3.1-9.2 6-1.6 1-2.4 1.2-4.3 1.6-2.8 1.5-2.2.7-3 1.8l-.5.7-.5.5-.3.3a5 5 0 0 1-1.4.7l-2.5.9c-.8.3-2.2 1.2-3.2 2-1 .7-2.3 1.5-3 1.6-.5.1-1.5.5-2.2 1-.6.4-1.5.6-2 .4-.7-.2-.7-.1-.3.2.7.5-2.3 2.1-4 2.1a5 5 0 0 0-2.2.8l-1.1.5c0-.2-.6 0-1.2.5-.6.4-1.3.6-1.5.4-.2-.2-.3 0-.3.2 0 .8-2.8 2.5-5.3 3.2-1 .3-2.1.7-2.3 1-.2.3-1.2.5-2.2.5-4-.2-5.5-.1-7.8.4-3.2.8-4.1.5-7.6-2.5-4.1-3.5-5.5-5-6.5-7.5-.7-1.5-.2-7.2 1.4-16.9a62.5 62.5 0 0 0 .6-23c-.5-3-.7-6-.5-6.6.3-1.4 3.5-3.7 6.3-4.5a24 24 0 0 1 10.7.5Zm-174 4.9c6 4 11.3 8.5 10.7 9.1-.1.2-.6 0-1-.3s-.8-.4-.8-.2c0 .8 2 1.7 2.1 1 .3-.8 3 1.1 3 2.2 0 .5-.7 1-1.7 1.4-2.3.8-3.5.7-4.5-.4-1-1.3-1-1.3.1-1.7 1.1-.3 1.4-1.3.4-1.3-.4 0-1.3-1-2.1-2A44.2 44.2 0 0 0 232 13.3l-2-1.3c0-.9 2.3.3 7.6 3.9Zm-200.4-3c.5.5 1.9 1.1 3 1.4a167.7 167.7 0 0 1 21.6 7.6c11.2 4.3 17 7 16.3 7.6-.2.2-1-.2-2-.7-2.3-1.5-7-3.3-18-6.9a259 259 0 0 1-12-4.2 26.7 26.7 0 0 0-9.2-3c-.8.6 1.5 1.7 5 2.5 1.5.4 3.5 1 4.5 1.5l3.7 1.5 3.5 1.2a110 110 0 0 0 11.2 4.3c2.6.6 13 5.5 13 6s-1.8 0-9-3a57.3 57.3 0 0 0-8.4-3 257.5 257.5 0 0 1-20.8-7.3c-.8-.3-.9-.2-.2.5a68.6 68.6 0 0 0 16.2 6 76.9 76.9 0 0 1 19 7.6c3 2 3.2 2.6.6 1.5a145.5 145.5 0 0 0-15.4-6c-1-.5-2.8-1.1-4-1.4l-3-.8c-.7-.3-1-.2-.8.2.1.4 3.7 1.8 8 3.3 7.3 2.5 15.7 6 15.3 6.4A59 59 0 0 1 64 33.2c-4.1-1.4-6.2-1.8-6.2-1.2 0 .3.9.6 1.9.8l5.6 1.7a39 39 0 0 0 5.7 1.8c4.3.6 5 .8 4.2 1.2-.4.3-3.7.2-7.4 0-9-.6-9.6-.6-9.4.1.1.3 1.2.6 2.4.7 1.3 0 4.6 0 7.5.2l5.2.1-3.3 1c-3.2.8-11.2 1.7-13 1.5-.5 0-.9.1-.9.5 0 .8 9.5 0 14-1.1 2.6-.7 7.3-.6 6.6 0-.3.4-1.8.7-3.2.8-4 .3-4 .3-7.4 1-3.2.8-4.7 1-10.1 1.1-2 0-2.8.3-2.6.7.5.7 9.1.1 13.7-1 4.2-.9 10-1.5 10-1 0 .7-1.8 1.2-7.8 2.3-5.3 1-7 1.2-15.6 1.9-4.6.3-7.5 1-7.5 1.7 0 .6.6.6 2 0 .7-.2 4.5-.7 8.4-1 4-.3 9.6-1 12.4-1.5 6-1.1 8-1.3 7.2-.4-.8.7-16.9 3.7-25.3 4.6a65.6 65.6 0 0 0-13 2.9c-.4.6 2.6.4 4.7-.3 2-.8 4.2-1.2 8.3-1.6 5-.5 10.6-1.3 16.4-2.5 9.7-1.9 9.6-1.8 8.7-1-.4.4-1.5.9-2.5 1-1 .1-3.4.7-5.1 1.2-1.8.6-5.7 1.3-8.6 1.6-3 .3-6.3.7-7.4 1-3 .6-9.7 1.9-12.1 2.2a20 20 0 0 0-3.8 1c-.8.3-2.6.8-3.9 1-1.3.2-2.5.5-2.6.8-.4.6 4.3.1 7-.8 1-.4 2.9-.8 4-1l8.2-1.5c3.4-.6 8.6-1.4 11.6-1.7 3-.3 6.5-1 7.7-1.4l6.5-1.6c4.7-.9 4.3-.4 5.3-5.7.1-.8.5-1.9.8-2.5.4-.6.5-2 .5-3l-.5-6.8c0-1.8-.2-2-2.7-3-4.1-2-10.7-4.7-15.8-6.6A118 118 0 0 0 45.5 15L37 12.3c-.7-.2-.6 0 .2.6ZM220 15c1.8 1 3.5 2.1 3.7 2.5a42.3 42.3 0 0 1 9 8.8c-.1.1.3 1 1 1.7l1.4 1.4-2 .2c-1 0-2.8 0-3.8-.3-2-.4-2-.5-2-2.5.3-3-.5-4.4-2.8-5.7-1-.6-2-1.3-2-1.5 0-.3.3-.3.7 0 1.1.6-3.4-3.5-5.3-4.7-1-.7-1.8-1.4-1.8-1.5 0-.4.8 0 3.9 1.6Zm32.4-.6.9.9c.8.6.8.6.2-.2-.7-.8-1.1-1-1.1-.7Zm28.4.5c0 .1.3.5.7.8.7.6.7.5.5-.2-.3-.6-1.2-1.1-1.2-.6Zm-74 2.6c1.1.9 3.2 2.2 4.5 3 4.2 2.3 8.2 5.3 8.2 6 0 .4.7 1 1.5 1.4 1.5.8 2 2.4 1 3-.2.1-1.8-1-3.5-2.5-1.8-1.5-5-4-7.4-5.6-5.2-3.5-5.5-3.8-4.3-3.4.7.2.2-.4-1-1.6-3.5-3.2-2.8-3.4 1-.3Zm113.5.1c1 1.2 1.3 1.3 1.3.7 0-.2-.5-.7-1.1-1-1.1-.7-1.1-.7-.2.3Zm-148.6 3.6 2.7 1.5c.3 0 1.7 1 3.3 2.4a59.3 59.3 0 0 0 7 5.3s-1.6.2-3.6.2c-3 0-3.9-.1-4.9-1l-1.2-1 1.7.4 1.7.3-2.1-2.6a15.2 15.2 0 0 0-2.5-2.5 21 21 0 0 1-4.8-4.5c.3 0 1.5.7 2.7 1.5Zm22.5-.2c1 .7 2.8 2 3.8 2.9 1 .9 3.3 2.5 5 3.5 4 2.4 5 3.5 4.1 4.4-.7.9-2.8 1.5-3.6 1-.3-.1 0-.7 1-1.4 1-1 1.2-1.2.4-1.2-.5 0-2-1-3.5-2.2a63.9 63.9 0 0 0-7.6-5.5c-3.9-2.6-3.5-4 .4-1.5Zm-10.6.5c-.4.4-1.9-.4-1.9-.9 0-.2.5-.2 1 .1.6.3 1 .7.9.8Zm163.4-.3c0 .2.2.6.5.8.3.1.5 0 .5-.5 0-.4-.2-.8-.5-.8s-.5.2-.5.5Zm-186 3.5c6.6 5.2 8 6.6 7.9 7.3-.1.4 0 1 .5 1.3l.4.5c-.1-.1-.6.2-1 .6-.5.4-1.2.7-1.6.6-.4 0-.7.4-.8 1.3-.2 1.4-.2 1.4 1.3.6 1.2-.6 1.7-.6 3-.1 1.7.6 2.5 1.8 1.1 1.8-.4 0-1.7.5-2.8 1-1.4.7-2.4 1-3.7.7-1.2-.2-1.6-.2-1.3.3.2.3.2 1.5 0 2.6-.3 1.8-.4 2-1.1 1.2-.9-.8-1-6.6 0-7.5.7-.8.4-2.2-.7-3.2-1.5-1.4-.6-2.4 1.5-1.6 1.5.5 2.7 0 1.5-.6-.5-.3-.5-.4 0-.6.3-.2-.3-1-1.6-2.1-4.2-3.7-8-7.6-7.5-7.6.3 0 2.5 1.6 5 3.5Zm49.6-3.3c0 .1.3.5.7.8.5.4.8.4.8.1 0-.3-.4-.6-.8-.8-.4-.1-.7-.2-.7 0Zm65.6 2.3c.5.8 1.2 1.5 1.7 1.5 1.2 0 1.1-.4-.5-1.8-1.8-1.6-2.2-1.5-1.2.3ZM188.8 25c1.8 1.2 4.4 3.2 5.9 4.5 2.8 2.4 2.8 3.1 0 3.1-1.6 0-2-.7-.6-1.1.6-.3.1-.9-2.1-2.6a326.5 326.5 0 0 1-7-5.4c-.7-.6-.8-.8-.2-.8.4 0 2.2 1 4 2.3Zm113.2-.3c.2.3.1.5-.2.5-.3 0-.5-.2-.5-.5s0-.5.2-.5c.1 0 .4.2.5.5Zm49.2 0c-.5.2-.4.4.6.6 1.4.3 2.2-.3 1-.8-1-.4-.8-.4-1.6.1Zm-32.8.3c-.6.1-1.5.7-2 1.2-.7.9-.7 1 0 1 .5 0 .8.3.8.7 0 .7 4.2 1.5 5 1 .9-.5.5-2.3-.5-2.6-.5-.1-1-.5-1-1 0-.6-.3-.7-2.3-.3Zm62.7 0c.3.2.2.5-.2.8-.5.3-.2.3.7 0 1-.1 1.7 0 2.3.6.5.5 1.4.7 1.9.6.5-.2 1.2 0 1.6.2.7.4.6.6-.3 1.4-.6.4-1.3 1.3-1.6 1.9-.4.8-.9 1-2 .8l-1.3-.2 1.2.6 1.4.8c.1 0 0 .5-.4 1.1-.8 1.6-2.4 2-4.7 1.2-1.5-.5-2-.5-2.3 0-.3.4-.6.5-1.3 0-2-1.2-1-7.6 1.1-7.6.4 0 .8-.2 1-.5.2-.3-.3-.4-1.2-.2-1.3.3-1.5.1-1.5-.6 0-.8.4-1 2.5-1 1.4-.1 2.8 0 3 .1Zm-252.7 3.6c3.6 2.7 5.6 4.7 5.6 5.6 0 .3-2.3-.1-4.5-.9-.6-.2-.6-.3 0-.6.4-.3.5-.5.1-.7-.3-.2-.4-.7-.2-1.1.1-.5 0-.7-.4-.5-.4.2-1.8-.8-3.2-2.2-1.4-1.4-2.2-2.5-2-2.5a23 23 0 0 1 4.6 3Zm6.3-2c.8.4 3.6 2 6 3.6 4.3 2.6 4.4 2.7 2.9 2.9-1.6.1-2 .5-1.3 1.3.3.2.4 1 .4 2 0 1.1.2 1.5 1 1.5.6 0 1.6.3 2.2.7l1.2.7-1.1.9c-1.4 1.1-3.3 1.2-5.1.2-1.3-.7-1.4-.6-1.4.2 0 .5-.1 1-.3 1.1-.5.6-1.7-.1-1.4-.8.1-.4 0-.8-.2-1-.3-.1-.6 0-.8.4-.4 1-4.3 2-6 1.3-.7-.2-1.6-.4-1.8-.2-.3.1-.3 0-.2-.4.2-.4 0-.9-.5-1-1-.4-1-1.5 0-3.3.8-1.7 1.7-2.1 3.7-1.7 1.9.3 2 2.1.4 3.3l-1.1.9 1.2-.4 2-.3 2.7.2 2 .2v-2.5c0-2.2.2-2.5 1-2.4 1 .2.9 0-.2-.8l-1.2-1 1.8.1 1.9-.1c0-.4-5.3-3.5-5.8-3.5-.3 0-1.4-.7-2.6-1.5-2.4-1.6-2-2 .6-.7Zm18.3 2.3a16 16 0 0 0 4.1 3.3c.4 0 .8.2.8.5 0 .2-.6.5-1.4.5-1.5 0-5-2.4-5-3.4 0-.3-1-1.4-2-2.4-1.4-1.4-1.6-1.7-.8-1.7.5 0 2.4 1.4 4.3 3.2Zm195-2.7c0 .3.4.5.8.5s.9-.2 1-.5c.2-.3-.1-.5-.7-.5-.5 0-1 .2-1 .5Zm23.3 1.9c-.2.4.4.9 1.5 1.4 1.5.6 1.6.8 1.2 1.6a10 10 0 0 0-.5 3.5c0 2-.2 2.5-1 2.8-1.3.4-1.6 2.1-.5 3.3 1 1 1 1-.4.6-2-.5-2-.4-2.3-3.5l-.4-2.8-1.7.3c-1 .2-1.7 0-1.7-.1 0-.3-.4-.3-1-.2-.6.2-1 .6-.8 1 .5 1.1-.6 3.3-1.4 3-.5-.2-.8 0-.8.4 0 1.2-1.5.8-2-.6-.4-1.2-.5-8.5 0-10.2.2-1.2 1.3-1.6 5.5-1.9 4-.3 6.7.3 6.3 1.4Zm-121.8-1c0 .4.3.6.5.6.3 0 .4-.2.3-.5-.2-.3-.4-.5-.6-.5 0 0-.2.2-.2.5Zm95.6 0c0 .4.2.5.4.5 1.2-.2 2 .2 2 .8 0 1.2 3.7 1 4.8-.2.7-.8 1-.9 2.2-.4 2 .9 2 1 2.4 5 .3 4.7-.3 6.3-2.2 6-1.4-.3-4-2.6-3.7-3.5 0-.4-.5-.7-1.9-.7s-2 .3-2.2 1c-.3.9-1.8 1-3.4.3-.7-.3-.9-1-.9-3.2 0-2.9 0-3 1.6-3.2 1.4-.3 1.5-.5.9-1-.9-.7-1.2-1.8-.5-1.8.3 0 .5.2.5.5Zm-223 7.4c0 .7-2.3.9-3.7.3-1.3-.4-1-1.3.4-1 .7.1 1.3 0 1.3-.1a17 17 0 0 0-2.5-2.8c-1.4-1.3-2.5-2.8-2.5-3.2 0-.4 1.6.8 3.5 2.7a19 19 0 0 1 3.5 4.1Zm160.5-7c.1.3 0 1.2-.2 2s-.1 2.4.1 3.6c.6 2.5.3 2.8-1.5 2.1-.7-.3-2.4-.6-3.7-.7a12 12 0 0 1-2.8-.6c-.3-.1-.9.2-1.3.7-.5.6-1.2.9-1.5.7-.3-.2-.2 0 .2.5.3.5.5 1.3.4 1.8-.2.5 0 1.2.1 1.6.4.5.6.5 1.2 0 .5-.4.8-.5.8-.4 0 .2.5 0 1.1-.6.6-.6 1.5-1 2-1 1 0 1.2 1.2.1 1.6-.4.2-.7.9-.6 1.7 0 .8.1 1 .2.5.2-.5.6-.9 1-.9.6 0 .6.2 0 1.6-.6 1-1.1 1.4-1.6 1.2-.4-.1-.7 0-.7.2s.3.5.6.6c.6.2-2.2 5.8-3.6 7.1-.9.8-.9.8-.8-1 .2-1.4 0-1.6-.5-1.1-1 .8-1.1.5-1.2-3.1 0-1.8-.5-4-.9-5-.6-1.4-.6-2.3-.1-4.8l.5-3.5c-.3-1.5.1-2 1.3-2 .7.2 1.2 0 1.2-.2 0-.3.4-.4 1-.2.5.2 1.8 0 3-.2 1.5-.3 2-.3 2.6.3.5.6.7.6 1.5-.4.5-.7.9-1.5.9-1.8 0-.7.8-.8 1.2-.2Zm-103 1.1c1 1.2 1.2 1.3 1.2.6 0-.3-.5-.8-1.1-1-1.1-.7-1.1-.7-.2.4Zm160.3-.6c1 .2 1.1.5 1 4.5-.2 4.4-.8 5.9-1.9 4.7-.5-.6-.4-.6.4-.4.7.3.8.3.4-.2-.3-.3-1.2-.6-1.9-.6s-1.3-.4-1.3-.8c0-.5-.5-.6-2-.3-1.2.2-2.4.6-2.8.8-.7.6-2.2 0-1.8-.7.2-.3 0-.4-.5-.2-1 .4-1.3-.6-1.3-3.3 0-2.9.5-3.5 2.1-2.9 1.4.6 6 .2 7.3-.5 1-.5 1-.5 2.3-.1Zm-71.7 3.8c-.3 4.6-.7 6.3-1.6 6.3-.5 0-.6-.3-.4-1 .1-.4 0-1-.2-1.2-.8-.5-5.1 1.1-6.4 2.4l-1.2 1 2.3.7c2 .6 2.5.5 3.8-.1 1.6-.9 3.3-.7 2.7.2-.2.3-.7.5-1.2.5s-1.3.5-1.8 1c-.5.6-1.2 1-1.5 1-.3 0-.7.6-.9 1.4l-.6 2.2c-.6 1.6.5 1 1.9-1.1.7-1.1 1.7-2 2.1-2 .7 0 .6.3-.3 1.6-.6 1-1.3 1.7-1.6 1.8-.2.1-.3.5-.3.8 0 .4-.7 1.4-1.6 2.3a17 17 0 0 0-2 2.9c-.2.7-.7 1-1 .8-.4-.2-.4-.2-.2.2.2.3-.3 1.5-1 2.7-1.8 2.7-1.8 2.7-2 2-.3-.5-6 5-12.5 12a19.4 19.4 0 0 1-3.6 3.3c-.3 0-.5.3-.5.6 0 .4-.7 1.3-1.4 2-.8.6-2.2 2-3.1 3.2-2.1 2.3-4.4 4-5.6 4-.5 0-.9-.2-.8-.4 0-.2 3.1-3 6.7-6.5 7.2-6.7 14.6-14.7 19.5-21 4.3-5.5 4.3-5.6 3-6.8-1-1-1-1.2-.6-4 .4-2.2.3-3.2-.1-4a16 16 0 0 1-.7-5.3c0-3.7.1-4.2 1-4.7.9-.4 1.4-.4 2.3.1 1 .6 1.5.5 2.9-.2.9-.5 2.5-1 3.5-1s2-.4 2.1-.7c.1-.4.4-.6.7-.6.2 0 .3 1.6.2 3.6ZM107 30.3l3 2.8c2.6 1.9 1.7 3.3-1.1 2-1-.4-1-.4 0-.4.7 0 1.2-.2 1.2-.3 0-.2-1.3-1.5-2.9-3-1.5-1.5-2.6-2.7-2.3-2.7.3 0 1.3.7 2.1 1.6Zm131.7.2-1.4 1.1h1.3c1.1-.2 1.2 0 1.1 2.2 0 1.5-.4 2.8-1 3.4-.9 1-1.6.8-1.6-.6 0-.5-.3-1-.6-1.3-.4-.2-.5 0-.3.9.3 1 .2 1-.3.3-.6-.8-.8-.8-2.6.2-1 .5-2.2.8-2.6.7-.4-.1-.6.2-.6 1 0 1.1-.1 1.3-.8.7-.5-.4-.9-.4-1.3-.1-.9.7-3.4 1.2-3.4.7 0-.2.3-.6.6-1 .3-.2.7-1.4 1-2.5.2-1.6.1-2-.4-2s-.6.4-.3 1.5c.1.8 0 1.7-.2 1.9-1.1.8-1.6 2.4-1 3.3.6.8.8.8 2.2-.2.8-.6 1.9-1 2.3-.8.7.3.6.5-.3 1.8-.6.7-1.9 2-2.8 2.6a161.5 161.5 0 0 1-7.5 6.2c-1.8 1.5-5.4 4.9-8 7.5-13.2 13.3-18.4 17.7-18.4 15.3 0-.6 5.5-6.4 6.3-6.7a83 83 0 0 0 9-8.2l9-9.2c6-6 7-7.7 7-11.3 0-1.2.3-2.3.5-2.5.3-.2.5-.7.5-1.3 0-.5.3-1 .6-1 .5 0 .5 0 .1-.3s-.4-.8-.1-1.6c.3-.9.6-1 1-.7.3.3.8.5 1.2.3.3-.1 1.2.3 2 1 1 .9 1.9 1.1 4.4 1.1h3.2l-.1-1.4c-.2-1 0-1.5 1.1-2 2-1 2.9-.4 1.2 1Zm-144.4 2c1.6 1.7 2.9 3.4 2.9 3.7 0 .3-.7.4-1.7.3-.8 0-1.5-.3-1.3-.6.1-.3.5-.5.9-.4.3 0-.7-1.4-2.2-3.2-3.7-4.1-2.4-4 1.4.2ZM218.1 30c1 .5 1 .7.4 1-1.4.5-1 2.5.6 3 1 .5 1.5.5 1.7.1.3-1 1.8.1 1.8 1.3 0 1.6-1.2 2.7-1.7 1.5-.2-.5-.6-.6-1.1-.4-.5.2-1.3.4-1.7.3-.5 0-1 .4-1.1.8a12 12 0 0 1-2.5 4 74.6 74.6 0 0 1-14.7 15.3c-1 .8-3.8 3-6 5a190.6 190.6 0 0 1-13.1 10.6c-.2 0-.4-.3-.4-.9 0-.6.3-1 .8-1 .4 0 .7-.2.7-.5s.4-.3.8-.2c.6.3.8.1.6-.3-.1-.4.5-1.3 1.6-2l3-2.6 4.4-4a53 53 0 0 0 4.7-4.2c.8-1 1.9-1.6 2.4-1.6A51 51 0 0 0 211 43.3c2.5-3.3 2.7-3.8 2.7-6.2 0-3.8 0-4.3.9-4.6.5-.2.6-.4 0-1-.3-.4-.4-.9-.3-1 .2-.3.4-.1.4.2 0 .3.2.6.5.6s.4-.4.3-.7c-.5-1.4.7-1.7 2.6-.6Zm-117.6 2.7c3.1 3 3.4 4 .7 3.3-.7-.2-1-.5-.7-.6.4-.2-.2-1.2-1.6-3-1.3-1.4-2.2-2.6-2-2.6a20 20 0 0 1 3.6 3Zm76-2c1.6.6 3.5.9 5 .8 3-.1 3.6.3 4 2.3.4 1.4 1.3 2 1.3.8 0-1 1.5-3.8 2-3.8l1.7.5c1.2.4 1.3.7 1.1 2.2l-.2 1.7h2a11 11 0 0 0 2.6-.6c.3-.1.8-.1 1.2.1.4.2 1 .3 1.6.2 1-.3 1-.1.7 3.1a22 22 0 0 1-.5 3.6c-.5.5-1.3-.6-1-1.5.3-1 .7-3.4.5-3.4l-1.8.6c-2 .7-2.5 1.3-2.2 2.4a116.6 116.6 0 0 1-19.7 18.6c0 .4-1.2 1.4-2.7 2.4-1.6 1-4.7 3-7 4.8-2.7 1.9-4.6 3-5.1 2.7-1-.3.8-1.9 6-5.4 1.9-1.2 3.8-2.7 4.3-3.1a103.2 103.2 0 0 0 20.3-17.9c-.5-.4 1.2-2 2-2 .4 0 .7-.4.7-.8s-.7-.6-2-.6c-2 0-2.2.3-2 1.9 0 .4-.2 1.4-.5 2.2-.6 1.4-.6 1.4-1.3.5-.4-.5-.7-1.9-.7-3s-.3-2.4-.5-2.8c-.4-.6-.5-.4-.5.6 0 2-.8 2.4-2.7 1.6-1-.3-1.8-.5-2-.3-.2.2-1.3.4-2.4.6-1.8.2-2.1.5-2.3 1.5-.5 4.5-1.5 2.7-1.8-3.5a157.8 157.8 0 0 0-.6-8l2.6 1Zm77.2 0c-.2.4-.4 1.7-.4 2.8-.2 2.3-.7 3.7-1.4 3.7-.2 0-.4-.4-.4-.8 0-.8-.2-.7-.8.2-.6.9-1 1-2.5.8-1.5-.3-1.8-.1-2 .8-.2.5-.5 1-.7 1-.6 0 2 2.5 3.3 3.3 1.3.8.7 1.8-3.4 6.3l-6.3 7.3A490 490 0 0 1 220.6 76c-2.7 2.6-5.4 4.7-5.4 4.2 0-.3 1-1.4 2.3-2.4 1.3-1.1 2.5-2.2 2.6-2.5l3-3.5c5.1-5.4 10-11 10-11.5 0-.2 1.2-1.7 2.7-3.1 1.8-1.8 2.5-2.9 2.2-3.1-.4-.2-.1-1 1-2.1a11 11 0 0 0 1.8-2.8c.2-.5.5-1 .8-1 .2 0 .4-.5.4-1 0-.6.4-1 1-1 .7 0 .7 0 0-.5-.6-.3-.8-.8-.6-1.2l.5-1.3c0-.4.6-1.1 1.2-1.6.9-.7 1-1 .2-1.2-.4-.1-.6-.5-.5-.7.2-.3 0-.5-.2-.5-.3 0-.6.4-.6.9s-.3.2-.5-.6c-.3-.8-.5-2-.5-2.7 0-.7-.2-1-.5-.8-.4.2-.4 0 0-.7.4-.6.5-1.7.3-2.4-.2-.8-.1-1.1.2-1 .3.3.4 0 .2-.5-.3-.6-.1-.7.6-.4l1.9.6c.4.2.8.5.8.7 0 .7 1.2.5 3.3-.5 1.2-.6 2-.8 2.3-.5.1.3.4 0 .5-.5.2-.6.7-1 1.4-1 .9 0 1 .2.7.8Zm113.3-.4c0 .2-.3.5-.7.5-.4 0-.8.3-.8.7 0 .4.4.8.8.8s.6-.3.5-.5c-.2-.3 0-.5.4-.5.5 0 .8.2.8.5 0 1 .9.4 1.1-.8.2-1 0-1.2-1-1.2-.6 0-1 .2-1 .5Zm-34 .5c-.5.6-.6.5 1.8.6 1.2 0 1.8-.1 1.8-.5 0-.8-3.2-.9-3.7-.1Zm15.8 0c-.8.2-.6.4 1 .5 1.8.3 2.4-.2 1-.7l-.9-.3-1 .4Zm31.7.2c0 .5.2.7.5.5.2-.2.3-.5.2-.8-.4-.7-.7-.5-.7.3ZM83.9 35.5c0 2.8-.3 6.5-.8 8.6-.8 4.2-.5 5.3 1 3.2A19 19 0 0 0 86 36.2c-.7-7.1-2.2-7.6-2.1-.7ZM389.3 34c.6.9 1 2 .8 2.4-.4.9-1 1-1.3.1-.1-.3-.4-.4-.7-.2-.2.2 0 .6.4.9 1.1.6 1.2 1.6.2 1.2-.5-.1-.8 0-.8.5 0 .7-.4.8-2 .6-1 0-2 0-2.1.3-.3.8-4.5.4-5.8-.5-2-1.5-2-2.3 0-2 .8.3 3 .1 5-.2 2.8-.5 3.4-.8 3.2-1.4l-.6-1.4c-.2-.4 0-.6.5-.6s.7-.3.5-.8c-.2-.4-.1-1.1 0-1.6.4-.8.5-.8 1 0l1.7 2.7Zm-72.6-1.3c0 .2.3.5.7.5.4 0 .9-.3 1-.5.2-.3 0-.5-.6-.5s-1 .2-1 .5Zm-104.6 2.6c.6 2.7.5 4.6-.4 5.5-.6.6-1-.2-1.1-3l-.2-2.3-1.1 1c-.7.6-1.5 1-1.8.8-.7-.2-1.7.7-3.7 3.4a89.9 89.9 0 0 1-9.6 11.1A142.1 142.1 0 0 1 176 65c-.7.3-1.2.8-1.2 1.1 0 1-4.2 4.4-5.3 4.4-.6 0 .8-1.6 4-4.7 2.6-2.6 5.1-4.8 5.5-4.8.4 0 1-.3 1.4-.8 1.4-1.7 9.3-7.2 11.3-7.8 1.3-.5 3.5-2.8 6.8-7.1 2.7-3.6 2.7-3.6 2.4-6.4-.4-3.8 0-4.3 4.3-4.3 2.7 0 3.5-.1 4.2-1 1.4-1.5 2-1.2 2.7 1.7Zm-54-.2c1.5.6 1.5.7.7 2-.5.9-.5 1.1.1 1.5.6.4.6.6.1 1.1-.3.3-.6.5-.6.2 0-.2-.5 0-1.1.4-1.4 1-2.8 1-4 0-1.3-1.2-1.1-1.5.9-1.9 1.9-.3 1.9-.3 1.4-1.5-.2-.6-.5-.6-1-.3-1.4 1.2-4.9-.8-3.7-2.1.3-.4.4-.8.3-1a37 37 0 0 1 6.8 1.6Zm18.7-1c0 .3.2.5.5.5s.5-.2.5-.5c0-.2-.2-.4-.5-.4s-.5.2-.5.4Zm2-.3-.3 1.4c-.1 1.2 0 1.3 1.7 1.2 1.6 0 1.9-.2 2-1.3.2-1 0-1-.5-.6-.8.9-1.9.8-1.9-.1 0-.6-.8-1.1-1-.6Zm-66.6 2.7c1 .5.3 1.6-1 1.9-2 .4-1.6 1.7.3 1.3 1.2-.2 2.6.9 2.6 2 0 1.2-2.1 2.4-4.4 2.4-3.5 0-3.6-.2-3.5-4.7l.2-3.8 2.7.3 3.1.6Zm8.4.7c.4.7.3.9-.7 1-1 .2-1 .2.2.8.7.3 1.8.7 2.5.8l2 .8c2 1.3-3.4 3.1-6.1 2-1.3-.4-1.4-.7-1.4-3.2 0-2 .2-2.8.8-3.2 1-.6 2-.2 2.7 1Zm166-.7c-.1.2-.5 0-.9-.3-.5-.5-.4-.5.3-.3.5.2.8.5.6.6Zm5.5 2.1c-1.4 1.4-1.9 2.4-1.9 3.4 0 .9-.3 2.6-.8 3.9-.7 1.9-1.1 2.4-2.5 2.9-1.3.4-2.1 1.3-3.6 3.8-1.1 1.7-3 4.2-4.1 5.4a75 75 0 0 0-4.6 5.5 79 79 0 0 1-6.6 7.3 162 162 0 0 0-5 5 50.8 50.8 0 0 1-7.9 7.1c-.3 0-.6-.3-.6-.7 0-.4.2-.8.5-.8.8 0 3-2 3-2.8 0-.3.3-.6.6-.6a139.1 139.1 0 0 0 22-24.6l3.2-4.2c1-1.3 1.4-2.2 1-2.4-.3-.2-.5-1.4-.4-2.9a9 9 0 0 0-.2-3.2c-.7-1 0-2 1.4-2 .8 0 1.2-.3 1-.6-.2-.2 0-.5.4-.5.5 0 1 .3 1.1.5.2.3 0 .5-.3.5s-.4.3-.2.5c.2.3.5.5.8.5.3 0 .4-.2.2-.5-.4-.6 2-2 2.8-1.7.4.2 1 0 1.4-.5.4-.4.8-.7 1-.5 0 .1-.7 1.1-1.7 2.2Zm58-1.3c.2.6.7 1.4 1.2 1.8 1 .8 1 1.6.2 4-1.2 3.7-2 5.5-3 5.8-1 .3-2 1.8-1.8 3 .1.9-2 5.5-6.6 14.7-1 2.2-2 4.2-2 4.7 0 .4-.4 1.1-1 1.6-.4.6-.8 1.1-.6 1.2.1.2-.5 1.8-1.3 3.6a16 16 0 0 0-1.5 4c0 .3-.4.8-.9 1-.7.2-.7.4-.2.7.4.2.5.7.3 1-.4.7-3 .7-3.5 0-.3-.5.7-2.4 1.8-3.3.6-.5.6-.7 0-1-.4-.4.2-1.9 2.4-6.3 3-5.9 7.3-16 9.6-22.7 1.7-5 2-6.4 1.4-6.7-.8-.6-.5-1.3.8-1.9 1.3-.6 1.7-2.2.5-1.7a2 2 0 0 1-1.5 0c-1.5-.5-.8-1.1 1.7-1.5 2.4-.3 2.4-.3 2.2-1.7-.3-1.1-.2-1.5.5-1.5.4 0 1 .6 1.2 1.2Zm-247.6.3.8 2c.4.7.4 1.3 0 1.9-.7 1.2-3 2.8-3.5 2.4-.5-.5-1-5.7-.6-6.4.5-.9 3-.8 3.3.1Zm231.9.6c-.3 1-.2 1 2.2 1.2 2 .1 2.5 1.7.5 1.7-1.3 0-3.4 2.5-7.1 8.3a64.3 64.3 0 0 1-4.1 6c-.6.5-1.5 2-2.2 3.1l-3.6 7c-3.2 6-3.1 5.9-4.1 8.2l-2 3.6a6 6 0 0 0-1.3 2.4c0 1-3.3 4.6-4.9 5.4-.7.4-1.8.6-2.5.6-1.1 0-1.2-.2-1.1-1.5 0-.8 1.5-3.5 3.2-6a61 61 0 0 0 4.2-7c.6-1.5 2.6-5 4.4-7.8a51 51 0 0 0 6-11.4c.1-.7.8-2 1.5-3.1 1.5-2.2 1.6-2.8.5-2.8-.7 0-.7-.2.3-1.2.6-.7 1-1.3.8-1.3-.5 0 1.1-3 2.3-4.3.7-.8 1.6-1.2 2.6-1.2.9 0 2-.3 2.5-.7 1.2-.9 2.4-.4 2 .8Zm-52.1-.2c-.2 1-1.1 1-1.3 0-.1-.5.1-.9.6-.9s.8.4.7 1Zm85.4 1.3a8.3 8.3 0 0 1-.8 2.6c-.2.3-.3 1.7-.2 3 .2 2.2.1 2.5-.8 3a78.3 78.3 0 0 0-9.3 17.5c.9.3.5 1.3-2.5 6.5-4.7 8-9 13.2-10 12.2-.4-.3.7-2.8 3.3-7.4a190 190 0 0 0 13-27.4c.8-1.7.8-1.8 0-2.5-1-.7-1-.7.1-.7h1.2l-1.3-1.3c-1.6-1.6-1.7-2.2-.3-2.2.6 0 1.5-.4 2-.8.7-.7 1-.7 1.5-.3 1.3 1.3 2 .7 2-1.9 0-2.3 0-2.5 1.2-2.5s1.3.1 1 2.2Zm-267.5.2c0 1.6.1 2.1.7 2.1.7 0 .8-.3.5-1.6-.6-2.6-1.2-2.8-1.2-.5Zm136.4 1.1c0 2.6-2.4 5.5-15.2 19A77 77 0 0 1 210 70.4c-.3 0-2.1 1.6-4.2 3.5-2 2-3.8 3.5-4 3.3-.1-.2 1.2-1.7 3-3.3 13-12 29.5-29.4 28-29.4-.3 0-.8.5-1.1 1-.4.6-.8 1-1 .8-.3-.2.2-1.5 1.2-2.8 1.5-2.4 2-3.6 1.7-5.4 0-.5.3-.4 1.4.2 1.1.7 1.6 1.3 1.6 2.2Zm-53.8.2c.4.6.3.9-.7 1.4a80 80 0 0 0-14.7 12.5c0 .6-13.8 10.6-15.3 11.1-1.2.4 3.3-3.7 7-6.5A530 530 0 0 0 177.6 44c1 0 2.3-1.7 2.3-2.8 0-1 .3-1.2 1.2-1.2.6 0 1.4.3 1.8.7Zm147.1-.2c-.4.7.2 1.5 1 1.5.4 0 .8-.2.8-.5s.6-.5 1.3-.5c.7 0 1.2-.1 1-.3-.6-.6-3.7-.7-4-.2Zm-157.6.4c0 .5-4.7 4.6-6.2 5.4-.5.2-1.2 1-1.4 1.5a16 16 0 0 1-5.6 4.2A145 145 0 0 0 146.9 63c0 .1-.5.5-1.2.8-.7.4-1.2.5-1.2.4 0 0 .8-1.4 2-3 1.8-2.7 3.9-4.6 4.8-4.6a42.7 42.7 0 0 1 6-4.5c2.4-1.6 6.5-4.8 9-7.2 4.4-4 6-5 6-3.9Zm155.4.7c-.9 1.5-.3 1.7.7.2.4-.7.6-1.3.3-1.3s-.7.5-1 1ZM381 41a4 4 0 0 0 2.8 0c.9-.3 1.9-.4 2.3-.3.7.3.4 1-1.5 3.6-1.4 2-3 5-3.8 7.6-.8 2.3-1.8 4.6-2.1 5a20 20 0 0 0-1.8 4c-.6 1.8-1.7 4.2-2.5 5.3a28 28 0 0 0-1.9 3.2c-3.4 7.7-5.7 10.4-8.9 10.8l-1.9.2 1-1.1a36 36 0 0 0 5.2-9.3c0-.6.3-1.7.6-2.4a174.1 174.1 0 0 0 6.2-19.6c.1-3.6 1.1-6 2.8-6.7 2-.9 2-.9 3.5-.3Zm-222.7 3.1c-9 8.4-10.5 9.6-10.5 8.6l3.7-3.7c2.1-2 3.6-3.9 3.7-4.5 0-.6.2-1.2.3-1.4a22 22 0 0 1 4.5-1c.3 0-.5.9-1.7 2ZM139.7 43c.4.2.8.5.8.7a55 55 0 0 1-9.3 8.6l-4.9 4.3c-.5.8-1.3.6-1.2-.3 0-.5 1.1-1.7 2.6-2.7a56 56 0 0 0 10.9-10.2c-.2-.8 0-.8 1-.4Zm11.2.5a20 20 0 0 1-5.6 5.3c-.3-.1-.4 0-.2.1.5.6-1.5 2.8-2.5 2.8-.7 0-6.9 4.3-9.5 6.7-2 1.8-3 2.4-3 1.8 0-.2.8-1.3 2-2.2 1-1 2-2 2-2.3 0-.2.3-.6.7-.7 2.2-.9 6.8-4.5 10.5-8.2 2.8-2.9 4.3-4 4.8-3.8l.8.5Zm-22 0c.6.2 1.1.6 1.1.9 0 .7-3.5 4.3-4.2 4.3-.3 0-1.5 1-2.8 2.3-2.8 2.9-4.8 4.3-5.4 3.9-.3-.2.3-1.1 1.6-2.2 6.7-5.9 7.6-7 7-8-.4-.5-.7-1-.7-1.2 0-.4 2-.3 3.4 0Zm-33.5 1c.7-.2 1.3-.2 1.3 0 0 .9-4.6 7.2-5.3 7.2-.6 0-.5-.4.5-2.2 1-1.7 1.2-2.5 1-4-.4-1.9-.3-2 .4-1.4.5.4 1.4.6 2.1.4Zm61-.3c0 .3.3.5.5.5.3 0 .4-.2.3-.5-.2-.3-.4-.5-.6-.5 0 0-.2.2-.2.5Zm-37.3.6a39 39 0 0 1-11.9 10.1c-.2-.2 1-1.5 2.5-3a61.7 61.7 0 0 0 5.9-6.9c0-.6.5-.8 1.7-.8 1 0 1.8.3 1.8.6Zm28.8.3c-.6.8-.6.8.2.2.8-.7 1-1 .7-1l-1 .8Zm-46.6.5c.3.5-4.5 5.9-4.9 5.5-.1-.1.6-1.5 1.6-3 1.7-2.7 2.8-3.4 3.3-2.5Zm6.8.3 1.6.6-1.8 1.2c-1 .7-1.8 1.4-1.8 1.5 0 .6-3.9 3.4-5 3.7-1.2.3-1 0 1.1-2.3 1.3-1.4 2.7-3.3 3-4 .8-1.6.8-1.6 2.9-.7ZM260 48c-.4.2-.6.6-.5.7.2.2.6 0 1-.5.7-.8.5-.9-.5-.2Zm-19.6 3c-1 1.4-1.8 2.5-1.6 2.5.4 0 3.9-4.5 3.7-4.8-.2 0-1 1-2.1 2.3Zm30.5-.3c-.3.4-.4.8-.3.8.7 0-4 6.2-7.6 10.2a809.7 809.7 0 0 0-7.8 8.2 44 44 0 0 0-4.2 5.5c-3.6 5.3-6.5 8.2-7.8 7.7-.8-.3-.7-.5.7-1.7.8-.7 2.6-2.9 3.9-4.8 2.7-4 5.6-7.2 6.5-7.2.4 0 1-.6 1.4-1.4.4-.7 2.9-3.6 5.5-6.3a55 55 0 0 0 6-7.2c2.5-4.2 2.7-4.5 3.5-4.5.7 0 .7.1.2.7ZM148.1 54a24 24 0 0 1-4.4 5c-3.7 3.5-5 4.6-5.8 4.4-1-.4-1.2-1.3-.3-1.3.4 0 1.6-1.2 2.8-2.7 2-2.5 4-4.3 4-3.4 0 .1.5-.3 1.1-1 1-1.3 2-1.7 2.6-1Zm0 5.8-.9 1 1.1-.9c1-.9 1.4-1.3 1-1.3l-1.2 1.2Zm158.5 23c-.3.8-.3.9.2.4.4-.4.5-.8.4-1-.2 0-.5.2-.6.7ZM292 84c-.2.3 0 .5.2.5.3 0 .5-.2.5-.5 0-.2 0-.5-.2-.5l-.5.5Z" clip-rule="evenodd"/></svg>
